{
  "status": "PASS",
  "execution": {
    "executable": "release\\win-unpacked\\Panda Stage.exe",
    "packaged": true,
    "developmentServerUsed": false,
    "isolatedPath": "C:\\Windows\\System32",
    "globalNodePnpmFfmpegRequired": false
  },
  "artifacts": {
    "installer": {
      "path": "release\\Panda-Stage-0.1.0-Windows-x64.exe",
      "sha256": "53804efb874b5e983895ad97cb331a0cfc5b0543b38629903147c28da745b759"
    },
    "unpackedExecutable": {
      "path": "release\\win-unpacked\\Panda Stage.exe",
      "sha256": "545a5a8e3e651da320ffd234fcb84eff9245b1237f62e18d794fdbd9543bbdb2"
    },
    "ffmpeg": {
      "path": "release\\win-unpacked\\resources\\media\\ffmpeg.exe",
      "sha256": "c8abc49e7be62dde8e12972af373959e0076a7b8dc8040eb45978e0608f8781e"
    },
    "ffprobe": {
      "path": "release\\win-unpacked\\resources\\media\\ffprobe.exe",
      "sha256": "f28c4751e7367205267025aaf0fcfc921e34d9b7edaa46bd9c8abaf367fc9051"
    },
    "runs": [
      {
        "run": 1,
        "path": "docs\\evidence\\gate-a\\打包输出 中文 空格 🐼\\三次 导出 🎬\\熊猫片场 Gate A 第 1 次 🐼.mp4",
        "bytes": 187040,
        "sha256": "41ae598f10b9b83f8f2f9fa60075a640bf196790cefa459c73407e9ec0cda400"
      },
      {
        "run": 2,
        "path": "docs\\evidence\\gate-a\\打包输出 中文 空格 🐼\\三次 导出 🎬\\熊猫片场 Gate A 第 2 次 🐼.mp4",
        "bytes": 187040,
        "sha256": "41ae598f10b9b83f8f2f9fa60075a640bf196790cefa459c73407e9ec0cda400"
      },
      {
        "run": 3,
        "path": "docs\\evidence\\gate-a\\打包输出 中文 空格 🐼\\三次 导出 🎬\\熊猫片场 Gate A 第 3 次 🐼.mp4",
        "bytes": 187040,
        "sha256": "41ae598f10b9b83f8f2f9fa60075a640bf196790cefa459c73407e9ec0cda400"
      }
    ]
  },
  "packaged": {
    "status": "PASS",
    "packaged": true,
    "resourceSource": "packaged-resources",
    "resourcePaths": {
      "ffmpegPath": "D:\\panda-stage\\.worktrees\\day10\\release\\win-unpacked\\resources\\media\\ffmpeg.exe",
      "ffprobePath": "D:\\panda-stage\\.worktrees\\day10\\release\\win-unpacked\\resources\\media\\ffprobe.exe",
      "audioProbePath": "D:\\panda-stage\\.worktrees\\day10\\release\\win-unpacked\\resources\\probe\\preview-tone.wav",
      "source": "packaged-resources"
    },
    "configHash": "c47d81e308ca9f1c2a4b0fbd88efc7d0dc6a1e43ee407df73cd9b957e6e377db",
    "previewFrames": [
      {
        "frameIndex": 0,
        "timeMs": 0,
        "path": "D:\\panda-stage\\.worktrees\\day10\\docs\\evidence\\gate-a\\打包输出 中文 空格 🐼\\主预览关键帧\\main-preview-frame-000000.png",
        "width": 1920,
        "height": 1080,
        "source": "StagePreview/CanvasStage main-window canvas"
      },
      {
        "frameIndex": 24,
        "timeMs": 1000,
        "path": "D:\\panda-stage\\.worktrees\\day10\\docs\\evidence\\gate-a\\打包输出 中文 空格 🐼\\主预览关键帧\\main-preview-frame-000024.png",
        "width": 1920,
        "height": 1080,
        "source": "StagePreview/CanvasStage main-window canvas"
      },
      {
        "frameIndex": 48,
        "timeMs": 2000,
        "path": "D:\\panda-stage\\.worktrees\\day10\\docs\\evidence\\gate-a\\打包输出 中文 空格 🐼\\主预览关键帧\\main-preview-frame-000048.png",
        "width": 1920,
        "height": 1080,
        "source": "StagePreview/CanvasStage main-window canvas"
      },
      {
        "frameIndex": 71,
        "timeMs": 2958,
        "path": "D:\\panda-stage\\.worktrees\\day10\\docs\\evidence\\gate-a\\打包输出 中文 空格 🐼\\主预览关键帧\\main-preview-frame-000071.png",
        "width": 1920,
        "height": 1080,
        "source": "StagePreview/CanvasStage main-window canvas"
      }
    ],
    "subtitles": [
      {
        "frameIndex": 0,
        "timeMs": 0,
        "text": null
      },
      {
        "frameIndex": 24,
        "timeMs": 1000,
        "text": "风吹过竹林，新的旅程准备出发。"
      },
      {
        "frameIndex": 48,
        "timeMs": 2000,
        "text": "每一个故事，都从勇敢迈出第一步开始。"
      },
      {
        "frameIndex": 71,
        "timeMs": 2958,
        "text": null
      }
    ],
    "playback": {
      "source": "packaged Electron Chromium HTMLVideoElement",
      "videoWidth": 1920,
      "videoHeight": 1080,
      "durationSeconds": 3.4,
      "muted": false,
      "startTimeSeconds": 0,
      "endTimeSeconds": 0.61126,
      "advancedSeconds": 0.61126
    },
    "cancellation": {
      "jobId": "d898308e-c4ed-4d14-8f27-b7ebbd8494aa",
      "cancellationAccepted": true,
      "status": "cancelled",
      "error": "导出已取消并完成资源清理；可以立即重新导出。",
      "activeJobAfter": null,
      "activeProcessesAfter": 0
    },
    "cleanup": {
      "frameJobEntries": 0,
      "activeJobId": null,
      "activeProcesses": 0
    },
    "mediaValidation": {
      "ffmpegVersion": "ffmpeg version N-92722-gf22fcd4483 Copyright (c) 2000-2018 the FFmpeg developers",
      "ffmpegExecutable": "D:\\panda-stage\\.worktrees\\day10\\release\\win-unpacked\\resources\\media\\ffmpeg.exe",
      "audioEncoderVersion": "ffmpeg version N-92722-gf22fcd4483 Copyright (c) 2000-2018 the FFmpeg developers"
    },
    "runs": [
      {
        "index": 1,
        "jobId": "7f2f927d-52fb-4742-8665-716b6582c1f1",
        "outputPath": "D:\\panda-stage\\.worktrees\\day10\\docs\\evidence\\gate-a\\打包输出 中文 空格 🐼\\三次 导出 🎬\\熊猫片场 Gate A 第 1 次 🐼.mp4",
        "configHash": "c47d81e308ca9f1c2a4b0fbd88efc7d0dc6a1e43ee407df73cd9b957e6e377db",
        "probe": {
          "codecName": "h264",
          "pixelFormat": "yuv420p",
          "width": 1920,
          "height": 1080,
          "fps": 24,
          "frameCount": 72,
          "durationSeconds": 3,
          "hasAudio": true,
          "audioCodecName": "aac",
          "audioSampleRate": 48000,
          "audioChannels": 1,
          "audioStartSeconds": 0,
          "audioDurationSeconds": 3.4,
          "formatDurationSeconds": 3.4,
          "raw": {
            "streams": [
              {
                "index": 0,
                "codec_name": "h264",
                "codec_long_name": "H.264 / AVC / MPEG-4 AVC / MPEG-4 part 10",
                "profile": "High",
                "codec_type": "video",
                "codec_tag_string": "avc1",
                "codec_tag": "0x31637661",
                "width": 1920,
                "height": 1080,
                "coded_width": 1920,
                "coded_height": 1088,
                "closed_captions": 0,
                "film_grain": 0,
                "has_b_frames": 2,
                "pix_fmt": "yuv420p",
                "level": 40,
                "chroma_location": "left",
                "field_order": "progressive",
                "refs": 4,
                "is_avc": "true",
                "nal_length_size": "4",
                "id": "0x1",
                "r_frame_rate": "24/1",
                "avg_frame_rate": "24/1",
                "time_base": "1/12288",
                "start_pts": 0,
                "start_time": "0.000000",
                "duration_ts": 36864,
                "duration": "3.000000",
                "bit_rate": "314562",
                "bits_per_raw_sample": "8",
                "nb_frames": "72",
                "nb_read_frames": "72",
                "extradata_size": 43,
                "disposition": {
                  "default": 1,
                  "dub": 0,
                  "original": 0,
                  "comment": 0,
                  "lyrics": 0,
                  "karaoke": 0,
                  "forced": 0,
                  "hearing_impaired": 0,
                  "visual_impaired": 0,
                  "clean_effects": 0,
                  "attached_pic": 0,
                  "timed_thumbnails": 0,
                  "captions": 0,
                  "descriptions": 0,
                  "metadata": 0,
                  "dependent": 0,
                  "still_image": 0
                },
                "tags": {
                  "language": "und",
                  "handler_name": "VideoHandler",
                  "vendor_id": "[0][0][0][0]"
                }
              },
              {
                "index": 1,
                "codec_name": "aac",
                "codec_long_name": "AAC (Advanced Audio Coding)",
                "profile": "LC",
                "codec_type": "audio",
                "codec_tag_string": "mp4a",
                "codec_tag": "0x6134706d",
                "sample_fmt": "fltp",
                "sample_rate": "48000",
                "channels": 1,
                "channel_layout": "mono",
                "bits_per_sample": 0,
                "initial_padding": 0,
                "id": "0x2",
                "r_frame_rate": "0/0",
                "avg_frame_rate": "0/0",
                "time_base": "1/48000",
                "start_pts": 0,
                "start_time": "0.000000",
                "duration_ts": 163200,
                "duration": "3.400000",
                "bit_rate": "153348",
                "nb_frames": "161",
                "nb_read_frames": "160",
                "extradata_size": 5,
                "disposition": {
                  "default": 1,
                  "dub": 0,
                  "original": 0,
                  "comment": 0,
                  "lyrics": 0,
                  "karaoke": 0,
                  "forced": 0,
                  "hearing_impaired": 0,
                  "visual_impaired": 0,
                  "clean_effects": 0,
                  "attached_pic": 0,
                  "timed_thumbnails": 0,
                  "captions": 0,
                  "descriptions": 0,
                  "metadata": 0,
                  "dependent": 0,
                  "still_image": 0
                },
                "tags": {
                  "language": "und",
                  "handler_name": "SoundHandler",
                  "vendor_id": "[0][0][0][0]"
                }
              }
            ],
            "format": {
              "filename": "D:\\panda-stage\\.worktrees\\day10\\docs\\evidence\\gate-a\\打包输出 中文 空格 🐼\\三次 导出 🎬\\.熊猫片场 Gate A 第 1 次 🐼.panda-stage-7f2f927d-52fb-4742-8665-716b6582c1f1-b2c803f5-dff5-426a-9c1a-fd62e570b3fd.mp4",
              "nb_streams": 2,
              "nb_programs": 0,
              "format_name": "mov,mp4,m4a,3gp,3g2,mj2",
              "format_long_name": "QuickTime / MOV",
              "start_time": "0.000000",
              "duration": "3.400000",
              "size": "187040",
              "bit_rate": "440094",
              "probe_score": 100,
              "tags": {
                "major_brand": "isom",
                "minor_version": "512",
                "compatible_brands": "isomiso2avc1mp41",
                "encoder": "Lavf58.24.101"
              }
            }
          }
        },
        "leadingSilenceEndSeconds": 0.400646,
        "elapsedMs": 146167
      },
      {
        "index": 2,
        "jobId": "d37d692c-998c-4920-83d8-11e6753112e5",
        "outputPath": "D:\\panda-stage\\.worktrees\\day10\\docs\\evidence\\gate-a\\打包输出 中文 空格 🐼\\三次 导出 🎬\\熊猫片场 Gate A 第 2 次 🐼.mp4",
        "configHash": "c47d81e308ca9f1c2a4b0fbd88efc7d0dc6a1e43ee407df73cd9b957e6e377db",
        "probe": {
          "codecName": "h264",
          "pixelFormat": "yuv420p",
          "width": 1920,
          "height": 1080,
          "fps": 24,
          "frameCount": 72,
          "durationSeconds": 3,
          "hasAudio": true,
          "audioCodecName": "aac",
          "audioSampleRate": 48000,
          "audioChannels": 1,
          "audioStartSeconds": 0,
          "audioDurationSeconds": 3.4,
          "formatDurationSeconds": 3.4,
          "raw": {
            "streams": [
              {
                "index": 0,
                "codec_name": "h264",
                "codec_long_name": "H.264 / AVC / MPEG-4 AVC / MPEG-4 part 10",
                "profile": "High",
                "codec_type": "video",
                "codec_tag_string": "avc1",
                "codec_tag": "0x31637661",
                "width": 1920,
                "height": 1080,
                "coded_width": 1920,
                "coded_height": 1088,
                "closed_captions": 0,
                "film_grain": 0,
                "has_b_frames": 2,
                "pix_fmt": "yuv420p",
                "level": 40,
                "chroma_location": "left",
                "field_order": "progressive",
                "refs": 4,
                "is_avc": "true",
                "nal_length_size": "4",
                "id": "0x1",
                "r_frame_rate": "24/1",
                "avg_frame_rate": "24/1",
                "time_base": "1/12288",
                "start_pts": 0,
                "start_time": "0.000000",
                "duration_ts": 36864,
                "duration": "3.000000",
                "bit_rate": "314562",
                "bits_per_raw_sample": "8",
                "nb_frames": "72",
                "nb_read_frames": "72",
                "extradata_size": 43,
                "disposition": {
                  "default": 1,
                  "dub": 0,
                  "original": 0,
                  "comment": 0,
                  "lyrics": 0,
                  "karaoke": 0,
                  "forced": 0,
                  "hearing_impaired": 0,
                  "visual_impaired": 0,
                  "clean_effects": 0,
                  "attached_pic": 0,
                  "timed_thumbnails": 0,
                  "captions": 0,
                  "descriptions": 0,
                  "metadata": 0,
                  "dependent": 0,
                  "still_image": 0
                },
                "tags": {
                  "language": "und",
                  "handler_name": "VideoHandler",
                  "vendor_id": "[0][0][0][0]"
                }
              },
              {
                "index": 1,
                "codec_name": "aac",
                "codec_long_name": "AAC (Advanced Audio Coding)",
                "profile": "LC",
                "codec_type": "audio",
                "codec_tag_string": "mp4a",
                "codec_tag": "0x6134706d",
                "sample_fmt": "fltp",
                "sample_rate": "48000",
                "channels": 1,
                "channel_layout": "mono",
                "bits_per_sample": 0,
                "initial_padding": 0,
                "id": "0x2",
                "r_frame_rate": "0/0",
                "avg_frame_rate": "0/0",
                "time_base": "1/48000",
                "start_pts": 0,
                "start_time": "0.000000",
                "duration_ts": 163200,
                "duration": "3.400000",
                "bit_rate": "153348",
                "nb_frames": "161",
                "nb_read_frames": "160",
                "extradata_size": 5,
                "disposition": {
                  "default": 1,
                  "dub": 0,
                  "original": 0,
                  "comment": 0,
                  "lyrics": 0,
                  "karaoke": 0,
                  "forced": 0,
                  "hearing_impaired": 0,
                  "visual_impaired": 0,
                  "clean_effects": 0,
                  "attached_pic": 0,
                  "timed_thumbnails": 0,
                  "captions": 0,
                  "descriptions": 0,
                  "metadata": 0,
                  "dependent": 0,
                  "still_image": 0
                },
                "tags": {
                  "language": "und",
                  "handler_name": "SoundHandler",
                  "vendor_id": "[0][0][0][0]"
                }
              }
            ],
            "format": {
              "filename": "D:\\panda-stage\\.worktrees\\day10\\docs\\evidence\\gate-a\\打包输出 中文 空格 🐼\\三次 导出 🎬\\.熊猫片场 Gate A 第 2 次 🐼.panda-stage-d37d692c-998c-4920-83d8-11e6753112e5-b6dfed4d-57d2-49b9-8a97-a3deae334736.mp4",
              "nb_streams": 2,
              "nb_programs": 0,
              "format_name": "mov,mp4,m4a,3gp,3g2,mj2",
              "format_long_name": "QuickTime / MOV",
              "start_time": "0.000000",
              "duration": "3.400000",
              "size": "187040",
              "bit_rate": "440094",
              "probe_score": 100,
              "tags": {
                "major_brand": "isom",
                "minor_version": "512",
                "compatible_brands": "isomiso2avc1mp41",
                "encoder": "Lavf58.24.101"
              }
            }
          }
        },
        "leadingSilenceEndSeconds": 0.400646,
        "elapsedMs": 146833
      },
      {
        "index": 3,
        "jobId": "05ccdfb5-8b11-4070-acc2-96b291c7defa",
        "outputPath": "D:\\panda-stage\\.worktrees\\day10\\docs\\evidence\\gate-a\\打包输出 中文 空格 🐼\\三次 导出 🎬\\熊猫片场 Gate A 第 3 次 🐼.mp4",
        "configHash": "c47d81e308ca9f1c2a4b0fbd88efc7d0dc6a1e43ee407df73cd9b957e6e377db",
        "probe": {
          "codecName": "h264",
          "pixelFormat": "yuv420p",
          "width": 1920,
          "height": 1080,
          "fps": 24,
          "frameCount": 72,
          "durationSeconds": 3,
          "hasAudio": true,
          "audioCodecName": "aac",
          "audioSampleRate": 48000,
          "audioChannels": 1,
          "audioStartSeconds": 0,
          "audioDurationSeconds": 3.4,
          "formatDurationSeconds": 3.4,
          "raw": {
            "streams": [
              {
                "index": 0,
                "codec_name": "h264",
                "codec_long_name": "H.264 / AVC / MPEG-4 AVC / MPEG-4 part 10",
                "profile": "High",
                "codec_type": "video",
                "codec_tag_string": "avc1",
                "codec_tag": "0x31637661",
                "width": 1920,
                "height": 1080,
                "coded_width": 1920,
                "coded_height": 1088,
                "closed_captions": 0,
                "film_grain": 0,
                "has_b_frames": 2,
                "pix_fmt": "yuv420p",
                "level": 40,
                "chroma_location": "left",
                "field_order": "progressive",
                "refs": 4,
                "is_avc": "true",
                "nal_length_size": "4",
                "id": "0x1",
                "r_frame_rate": "24/1",
                "avg_frame_rate": "24/1",
                "time_base": "1/12288",
                "start_pts": 0,
                "start_time": "0.000000",
                "duration_ts": 36864,
                "duration": "3.000000",
                "bit_rate": "314562",
                "bits_per_raw_sample": "8",
                "nb_frames": "72",
                "nb_read_frames": "72",
                "extradata_size": 43,
                "disposition": {
                  "default": 1,
                  "dub": 0,
                  "original": 0,
                  "comment": 0,
                  "lyrics": 0,
                  "karaoke": 0,
                  "forced": 0,
                  "hearing_impaired": 0,
                  "visual_impaired": 0,
                  "clean_effects": 0,
                  "attached_pic": 0,
                  "timed_thumbnails": 0,
                  "captions": 0,
                  "descriptions": 0,
                  "metadata": 0,
                  "dependent": 0,
                  "still_image": 0
                },
                "tags": {
                  "language": "und",
                  "handler_name": "VideoHandler",
                  "vendor_id": "[0][0][0][0]"
                }
              },
              {
                "index": 1,
                "codec_name": "aac",
                "codec_long_name": "AAC (Advanced Audio Coding)",
                "profile": "LC",
                "codec_type": "audio",
                "codec_tag_string": "mp4a",
                "codec_tag": "0x6134706d",
                "sample_fmt": "fltp",
                "sample_rate": "48000",
                "channels": 1,
                "channel_layout": "mono",
                "bits_per_sample": 0,
                "initial_padding": 0,
                "id": "0x2",
                "r_frame_rate": "0/0",
                "avg_frame_rate": "0/0",
                "time_base": "1/48000",
                "start_pts": 0,
                "start_time": "0.000000",
                "duration_ts": 163200,
                "duration": "3.400000",
                "bit_rate": "153348",
                "nb_frames": "161",
                "nb_read_frames": "160",
                "extradata_size": 5,
                "disposition": {
                  "default": 1,
                  "dub": 0,
                  "original": 0,
                  "comment": 0,
                  "lyrics": 0,
                  "karaoke": 0,
                  "forced": 0,
                  "hearing_impaired": 0,
                  "visual_impaired": 0,
                  "clean_effects": 0,
                  "attached_pic": 0,
                  "timed_thumbnails": 0,
                  "captions": 0,
                  "descriptions": 0,
                  "metadata": 0,
                  "dependent": 0,
                  "still_image": 0
                },
                "tags": {
                  "language": "und",
                  "handler_name": "SoundHandler",
                  "vendor_id": "[0][0][0][0]"
                }
              }
            ],
            "format": {
              "filename": "D:\\panda-stage\\.worktrees\\day10\\docs\\evidence\\gate-a\\打包输出 中文 空格 🐼\\三次 导出 🎬\\.熊猫片场 Gate A 第 3 次 🐼.panda-stage-05ccdfb5-8b11-4070-acc2-96b291c7defa-ae13459c-ee75-45fc-80eb-e10a93ac0571.mp4",
              "nb_streams": 2,
              "nb_programs": 0,
              "format_name": "mov,mp4,m4a,3gp,3g2,mj2",
              "format_long_name": "QuickTime / MOV",
              "start_time": "0.000000",
              "duration": "3.400000",
              "size": "187040",
              "bit_rate": "440094",
              "probe_score": 100,
              "tags": {
                "major_brand": "isom",
                "minor_version": "512",
                "compatible_brands": "isomiso2avc1mp41",
                "encoder": "Lavf58.24.101"
              }
            }
          }
        },
        "leadingSilenceEndSeconds": 0.400646,
        "elapsedMs": 146378
      }
    ]
  },
  "ffprobeReports": [
    {
      "run": 1,
      "video": {
        "index": 0,
        "codec_name": "h264",
        "codec_long_name": "H.264 / AVC / MPEG-4 AVC / MPEG-4 part 10",
        "profile": "High",
        "codec_type": "video",
        "codec_tag_string": "avc1",
        "codec_tag": "0x31637661",
        "width": 1920,
        "height": 1080,
        "coded_width": 1920,
        "coded_height": 1088,
        "closed_captions": 0,
        "film_grain": 0,
        "has_b_frames": 2,
        "pix_fmt": "yuv420p",
        "level": 40,
        "chroma_location": "left",
        "field_order": "progressive",
        "refs": 4,
        "is_avc": "true",
        "nal_length_size": "4",
        "id": "0x1",
        "r_frame_rate": "24/1",
        "avg_frame_rate": "24/1",
        "time_base": "1/12288",
        "start_pts": 0,
        "start_time": "0.000000",
        "duration_ts": 36864,
        "duration": "3.000000",
        "bit_rate": "314562",
        "bits_per_raw_sample": "8",
        "nb_frames": "72",
        "nb_read_frames": "72",
        "extradata_size": 43,
        "disposition": {
          "default": 1,
          "dub": 0,
          "original": 0,
          "comment": 0,
          "lyrics": 0,
          "karaoke": 0,
          "forced": 0,
          "hearing_impaired": 0,
          "visual_impaired": 0,
          "clean_effects": 0,
          "attached_pic": 0,
          "timed_thumbnails": 0,
          "captions": 0,
          "descriptions": 0,
          "metadata": 0,
          "dependent": 0,
          "still_image": 0
        },
        "tags": {
          "language": "und",
          "handler_name": "VideoHandler",
          "vendor_id": "[0][0][0][0]"
        }
      },
      "audio": {
        "index": 1,
        "codec_name": "aac",
        "codec_long_name": "AAC (Advanced Audio Coding)",
        "profile": "LC",
        "codec_type": "audio",
        "codec_tag_string": "mp4a",
        "codec_tag": "0x6134706d",
        "sample_fmt": "fltp",
        "sample_rate": "48000",
        "channels": 1,
        "channel_layout": "mono",
        "bits_per_sample": 0,
        "initial_padding": 0,
        "id": "0x2",
        "r_frame_rate": "0/0",
        "avg_frame_rate": "0/0",
        "time_base": "1/48000",
        "start_pts": 0,
        "start_time": "0.000000",
        "duration_ts": 163200,
        "duration": "3.400000",
        "bit_rate": "153348",
        "nb_frames": "161",
        "nb_read_frames": "160",
        "extradata_size": 5,
        "disposition": {
          "default": 1,
          "dub": 0,
          "original": 0,
          "comment": 0,
          "lyrics": 0,
          "karaoke": 0,
          "forced": 0,
          "hearing_impaired": 0,
          "visual_impaired": 0,
          "clean_effects": 0,
          "attached_pic": 0,
          "timed_thumbnails": 0,
          "captions": 0,
          "descriptions": 0,
          "metadata": 0,
          "dependent": 0,
          "still_image": 0
        },
        "tags": {
          "language": "und",
          "handler_name": "SoundHandler",
          "vendor_id": "[0][0][0][0]"
        }
      },
      "format": {
        "filename": "D:\\panda-stage\\.worktrees\\day10\\docs\\evidence\\gate-a\\打包输出 中文 空格 🐼\\三次 导出 🎬\\熊猫片场 Gate A 第 1 次 🐼.mp4",
        "nb_streams": 2,
        "nb_programs": 0,
        "format_name": "mov,mp4,m4a,3gp,3g2,mj2",
        "format_long_name": "QuickTime / MOV",
        "start_time": "0.000000",
        "duration": "3.400000",
        "size": "187040",
        "bit_rate": "440094",
        "probe_score": 100,
        "tags": {
          "major_brand": "isom",
          "minor_version": "512",
          "compatible_brands": "isomiso2avc1mp41",
          "encoder": "Lavf58.24.101"
        }
      }
    },
    {
      "run": 2,
      "video": {
        "index": 0,
        "codec_name": "h264",
        "codec_long_name": "H.264 / AVC / MPEG-4 AVC / MPEG-4 part 10",
        "profile": "High",
        "codec_type": "video",
        "codec_tag_string": "avc1",
        "codec_tag": "0x31637661",
        "width": 1920,
        "height": 1080,
        "coded_width": 1920,
        "coded_height": 1088,
        "closed_captions": 0,
        "film_grain": 0,
        "has_b_frames": 2,
        "pix_fmt": "yuv420p",
        "level": 40,
        "chroma_location": "left",
        "field_order": "progressive",
        "refs": 4,
        "is_avc": "true",
        "nal_length_size": "4",
        "id": "0x1",
        "r_frame_rate": "24/1",
        "avg_frame_rate": "24/1",
        "time_base": "1/12288",
        "start_pts": 0,
        "start_time": "0.000000",
        "duration_ts": 36864,
        "duration": "3.000000",
        "bit_rate": "314562",
        "bits_per_raw_sample": "8",
        "nb_frames": "72",
        "nb_read_frames": "72",
        "extradata_size": 43,
        "disposition": {
          "default": 1,
          "dub": 0,
          "original": 0,
          "comment": 0,
          "lyrics": 0,
          "karaoke": 0,
          "forced": 0,
          "hearing_impaired": 0,
          "visual_impaired": 0,
          "clean_effects": 0,
          "attached_pic": 0,
          "timed_thumbnails": 0,
          "captions": 0,
          "descriptions": 0,
          "metadata": 0,
          "dependent": 0,
          "still_image": 0
        },
        "tags": {
          "language": "und",
          "handler_name": "VideoHandler",
          "vendor_id": "[0][0][0][0]"
        }
      },
      "audio": {
        "index": 1,
        "codec_name": "aac",
        "codec_long_name": "AAC (Advanced Audio Coding)",
        "profile": "LC",
        "codec_type": "audio",
        "codec_tag_string": "mp4a",
        "codec_tag": "0x6134706d",
        "sample_fmt": "fltp",
        "sample_rate": "48000",
        "channels": 1,
        "channel_layout": "mono",
        "bits_per_sample": 0,
        "initial_padding": 0,
        "id": "0x2",
        "r_frame_rate": "0/0",
        "avg_frame_rate": "0/0",
        "time_base": "1/48000",
        "start_pts": 0,
        "start_time": "0.000000",
        "duration_ts": 163200,
        "duration": "3.400000",
        "bit_rate": "153348",
        "nb_frames": "161",
        "nb_read_frames": "160",
        "extradata_size": 5,
        "disposition": {
          "default": 1,
          "dub": 0,
          "original": 0,
          "comment": 0,
          "lyrics": 0,
          "karaoke": 0,
          "forced": 0,
          "hearing_impaired": 0,
          "visual_impaired": 0,
          "clean_effects": 0,
          "attached_pic": 0,
          "timed_thumbnails": 0,
          "captions": 0,
          "descriptions": 0,
          "metadata": 0,
          "dependent": 0,
          "still_image": 0
        },
        "tags": {
          "language": "und",
          "handler_name": "SoundHandler",
          "vendor_id": "[0][0][0][0]"
        }
      },
      "format": {
        "filename": "D:\\panda-stage\\.worktrees\\day10\\docs\\evidence\\gate-a\\打包输出 中文 空格 🐼\\三次 导出 🎬\\熊猫片场 Gate A 第 2 次 🐼.mp4",
        "nb_streams": 2,
        "nb_programs": 0,
        "format_name": "mov,mp4,m4a,3gp,3g2,mj2",
        "format_long_name": "QuickTime / MOV",
        "start_time": "0.000000",
        "duration": "3.400000",
        "size": "187040",
        "bit_rate": "440094",
        "probe_score": 100,
        "tags": {
          "major_brand": "isom",
          "minor_version": "512",
          "compatible_brands": "isomiso2avc1mp41",
          "encoder": "Lavf58.24.101"
        }
      }
    },
    {
      "run": 3,
      "video": {
        "index": 0,
        "codec_name": "h264",
        "codec_long_name": "H.264 / AVC / MPEG-4 AVC / MPEG-4 part 10",
        "profile": "High",
        "codec_type": "video",
        "codec_tag_string": "avc1",
        "codec_tag": "0x31637661",
        "width": 1920,
        "height": 1080,
        "coded_width": 1920,
        "coded_height": 1088,
        "closed_captions": 0,
        "film_grain": 0,
        "has_b_frames": 2,
        "pix_fmt": "yuv420p",
        "level": 40,
        "chroma_location": "left",
        "field_order": "progressive",
        "refs": 4,
        "is_avc": "true",
        "nal_length_size": "4",
        "id": "0x1",
        "r_frame_rate": "24/1",
        "avg_frame_rate": "24/1",
        "time_base": "1/12288",
        "start_pts": 0,
        "start_time": "0.000000",
        "duration_ts": 36864,
        "duration": "3.000000",
        "bit_rate": "314562",
        "bits_per_raw_sample": "8",
        "nb_frames": "72",
        "nb_read_frames": "72",
        "extradata_size": 43,
        "disposition": {
          "default": 1,
          "dub": 0,
          "original": 0,
          "comment": 0,
          "lyrics": 0,
          "karaoke": 0,
          "forced": 0,
          "hearing_impaired": 0,
          "visual_impaired": 0,
          "clean_effects": 0,
          "attached_pic": 0,
          "timed_thumbnails": 0,
          "captions": 0,
          "descriptions": 0,
          "metadata": 0,
          "dependent": 0,
          "still_image": 0
        },
        "tags": {
          "language": "und",
          "handler_name": "VideoHandler",
          "vendor_id": "[0][0][0][0]"
        }
      },
      "audio": {
        "index": 1,
        "codec_name": "aac",
        "codec_long_name": "AAC (Advanced Audio Coding)",
        "profile": "LC",
        "codec_type": "audio",
        "codec_tag_string": "mp4a",
        "codec_tag": "0x6134706d",
        "sample_fmt": "fltp",
        "sample_rate": "48000",
        "channels": 1,
        "channel_layout": "mono",
        "bits_per_sample": 0,
        "initial_padding": 0,
        "id": "0x2",
        "r_frame_rate": "0/0",
        "avg_frame_rate": "0/0",
        "time_base": "1/48000",
        "start_pts": 0,
        "start_time": "0.000000",
        "duration_ts": 163200,
        "duration": "3.400000",
        "bit_rate": "153348",
        "nb_frames": "161",
        "nb_read_frames": "160",
        "extradata_size": 5,
        "disposition": {
          "default": 1,
          "dub": 0,
          "original": 0,
          "comment": 0,
          "lyrics": 0,
          "karaoke": 0,
          "forced": 0,
          "hearing_impaired": 0,
          "visual_impaired": 0,
          "clean_effects": 0,
          "attached_pic": 0,
          "timed_thumbnails": 0,
          "captions": 0,
          "descriptions": 0,
          "metadata": 0,
          "dependent": 0,
          "still_image": 0
        },
        "tags": {
          "language": "und",
          "handler_name": "SoundHandler",
          "vendor_id": "[0][0][0][0]"
        }
      },
      "format": {
        "filename": "D:\\panda-stage\\.worktrees\\day10\\docs\\evidence\\gate-a\\打包输出 中文 空格 🐼\\三次 导出 🎬\\熊猫片场 Gate A 第 3 次 🐼.mp4",
        "nb_streams": 2,
        "nb_programs": 0,
        "format_name": "mov,mp4,m4a,3gp,3g2,mj2",
        "format_long_name": "QuickTime / MOV",
        "start_time": "0.000000",
        "duration": "3.400000",
        "size": "187040",
        "bit_rate": "440094",
        "probe_score": 100,
        "tags": {
          "major_brand": "isom",
          "minor_version": "512",
          "compatible_brands": "isomiso2avc1mp41",
          "encoder": "Lavf58.24.101"
        }
      }
    }
  ],
  "comparisons": {
    "exportToExportDeterminism": {
      "purpose": "Prove three exports are deterministic; does not prove preview parity.",
      "algorithm": {
        "colorSpace": "RGB24",
        "dimensions": "1920x1080",
        "changedPixel": "any channel absolute difference > 0",
        "channelTolerance": 0,
        "ratioThresholdExclusive": 0.01
      },
      "entries": [
        {
          "frameIndex": 0,
          "leftRun": 1,
          "rightRun": 2,
          "changedPixels": 0,
          "totalPixels": 2073600,
          "ratio": 0,
          "channelTolerance": 0
        },
        {
          "frameIndex": 0,
          "leftRun": 1,
          "rightRun": 3,
          "changedPixels": 0,
          "totalPixels": 2073600,
          "ratio": 0,
          "channelTolerance": 0
        },
        {
          "frameIndex": 24,
          "leftRun": 1,
          "rightRun": 2,
          "changedPixels": 0,
          "totalPixels": 2073600,
          "ratio": 0,
          "channelTolerance": 0
        },
        {
          "frameIndex": 24,
          "leftRun": 1,
          "rightRun": 3,
          "changedPixels": 0,
          "totalPixels": 2073600,
          "ratio": 0,
          "channelTolerance": 0
        },
        {
          "frameIndex": 48,
          "leftRun": 1,
          "rightRun": 2,
          "changedPixels": 0,
          "totalPixels": 2073600,
          "ratio": 0,
          "channelTolerance": 0
        },
        {
          "frameIndex": 48,
          "leftRun": 1,
          "rightRun": 3,
          "changedPixels": 0,
          "totalPixels": 2073600,
          "ratio": 0,
          "channelTolerance": 0
        },
        {
          "frameIndex": 71,
          "leftRun": 1,
          "rightRun": 2,
          "changedPixels": 0,
          "totalPixels": 2073600,
          "ratio": 0,
          "channelTolerance": 0
        },
        {
          "frameIndex": 71,
          "leftRun": 1,
          "rightRun": 3,
          "changedPixels": 0,
          "totalPixels": 2073600,
          "ratio": 0,
          "channelTolerance": 0
        }
      ]
    },
    "previewToExportParity": {
      "purpose": "Compare packaged main-window StagePreview/CanvasStage pixels with every decoded export.",
      "previewSource": "StagePreview/CanvasStage main-window canvas PNG",
      "algorithm": {
        "colorSpace": "RGB24",
        "dimensions": "1920x1080",
        "changedPixel": "any channel absolute difference > 16",
        "channelTolerance": 16,
        "toleranceRationale": "Allow small RGB channel error introduced by H.264/yuv420p lossy encoding.",
        "ratio": "changedPixels / totalPixels",
        "ratioThresholdExclusive": 0.01
      },
      "entries": [
        {
          "frameIndex": 0,
          "timeMs": 0,
          "previewSource": "StagePreview/CanvasStage main-window canvas",
          "exportRun": 1,
          "changedPixels": 2199,
          "totalPixels": 2073600,
          "ratio": 0.001060474537037037,
          "channelTolerance": 16
        },
        {
          "frameIndex": 0,
          "timeMs": 0,
          "previewSource": "StagePreview/CanvasStage main-window canvas",
          "exportRun": 2,
          "changedPixels": 2199,
          "totalPixels": 2073600,
          "ratio": 0.001060474537037037,
          "channelTolerance": 16
        },
        {
          "frameIndex": 0,
          "timeMs": 0,
          "previewSource": "StagePreview/CanvasStage main-window canvas",
          "exportRun": 3,
          "changedPixels": 2199,
          "totalPixels": 2073600,
          "ratio": 0.001060474537037037,
          "channelTolerance": 16
        },
        {
          "frameIndex": 24,
          "timeMs": 1000,
          "previewSource": "StagePreview/CanvasStage main-window canvas",
          "exportRun": 1,
          "changedPixels": 3362,
          "totalPixels": 2073600,
          "ratio": 0.0016213348765432099,
          "channelTolerance": 16
        },
        {
          "frameIndex": 24,
          "timeMs": 1000,
          "previewSource": "StagePreview/CanvasStage main-window canvas",
          "exportRun": 2,
          "changedPixels": 3362,
          "totalPixels": 2073600,
          "ratio": 0.0016213348765432099,
          "channelTolerance": 16
        },
        {
          "frameIndex": 24,
          "timeMs": 1000,
          "previewSource": "StagePreview/CanvasStage main-window canvas",
          "exportRun": 3,
          "changedPixels": 3362,
          "totalPixels": 2073600,
          "ratio": 0.0016213348765432099,
          "channelTolerance": 16
        },
        {
          "frameIndex": 48,
          "timeMs": 2000,
          "previewSource": "StagePreview/CanvasStage main-window canvas",
          "exportRun": 1,
          "changedPixels": 2999,
          "totalPixels": 2073600,
          "ratio": 0.0014462770061728395,
          "channelTolerance": 16
        },
        {
          "frameIndex": 48,
          "timeMs": 2000,
          "previewSource": "StagePreview/CanvasStage main-window canvas",
          "exportRun": 2,
          "changedPixels": 2999,
          "totalPixels": 2073600,
          "ratio": 0.0014462770061728395,
          "channelTolerance": 16
        },
        {
          "frameIndex": 48,
          "timeMs": 2000,
          "previewSource": "StagePreview/CanvasStage main-window canvas",
          "exportRun": 3,
          "changedPixels": 2999,
          "totalPixels": 2073600,
          "ratio": 0.0014462770061728395,
          "channelTolerance": 16
        },
        {
          "frameIndex": 71,
          "timeMs": 2958,
          "previewSource": "StagePreview/CanvasStage main-window canvas",
          "exportRun": 1,
          "changedPixels": 3624,
          "totalPixels": 2073600,
          "ratio": 0.0017476851851851852,
          "channelTolerance": 16
        },
        {
          "frameIndex": 71,
          "timeMs": 2958,
          "previewSource": "StagePreview/CanvasStage main-window canvas",
          "exportRun": 2,
          "changedPixels": 3624,
          "totalPixels": 2073600,
          "ratio": 0.0017476851851851852,
          "channelTolerance": 16
        },
        {
          "frameIndex": 71,
          "timeMs": 2958,
          "previewSource": "StagePreview/CanvasStage main-window canvas",
          "exportRun": 3,
          "changedPixels": 3624,
          "totalPixels": 2073600,
          "ratio": 0.0017476851851851852,
          "channelTolerance": 16
        }
      ]
    }
  },
  "missingResource": {
    "exitCode": 1,
    "status": "FAIL",
    "message": "Panda Stage packaged resource is missing or unreadable: FFmpeg (D:\\panda-stage\\.worktrees\\day10\\release\\win-unpacked\\resources-missing-gate-fixture\\media\\ffmpeg.exe). Reinstall the application from a complete distribution."
  }
}
